<svg width="73" height="100" viewBox="0 0 73 100" fill="none" xmlns="http://www.w3.org/2000/svg">
<path fill-rule="evenodd" clip-rule="evenodd" d="M67.3766 55.9738C70.9385 50.3382 73 43.6598 73 36.5C73 16.3416 56.6584 0 36.5 0C16.3416 0 0 16.3416 0 36.5C0 44.6121 2.64636 52.1061 7.12286 58.1658C17.0621 76.8212 37.9955 100 37.9955 100C37.9955 100 58.0432 74.0351 67.3766 55.9738Z" fill="#F3315C"/>
<path d="M26.2696 36.6735C24.413 36.6735 23.3548 38.7232 24.432 40.2033C28.6204 45.9685 35.5461 49.7273 43.3716 49.7273C51.197 49.7273 58.1164 45.9623 62.3048 40.2033C63.382 38.7232 62.3238 36.6735 60.4672 36.6735H26.2696Z" fill="#B2EAEA"/>
<path d="M37.1431 22.4742C37.1431 25.4974 34.6922 27.9483 31.6689 27.9483H31.4144C28.3911 27.9483 25.9403 25.4974 25.9403 22.4742V22.4742C25.9403 19.4522 28.4495 17 31.5417 17C34.6338 17 37.1431 19.4522 37.1431 22.4742V22.4742Z" fill="#B2EAEA"/>
<path d="M60.8028 22.4742C60.8028 25.4974 58.352 27.9483 55.3287 27.9483H55.0742C52.0509 27.9483 49.6 25.4974 49.6 22.4742V22.4742C49.6 19.4522 52.1093 17 55.2014 17C58.2936 17 60.8028 19.4522 60.8028 22.4742V22.4742Z" fill="#B2EAEA"/>
<path d="M4.99997 40.5C4.99997 39.9477 4.55225 39.5 3.99997 39.5C3.44768 39.5 2.99997 39.9477 2.99997 40.5H4.99997ZM2.99997 40.5C2.99997 43.4537 3.96882 46.7913 5.61182 50.4345C7.25958 54.0882 9.6192 58.1218 12.4758 62.4852C18.1827 71.2023 25.9636 81.3687 34.1936 92.5913L35.8064 91.4086C27.5363 80.1312 19.8172 70.0476 14.1491 61.3897C11.3182 57.0656 9.02161 53.1305 7.43499 49.6123C5.84362 46.0836 4.99997 43.0462 4.99997 40.5H2.99997Z" fill="#B2EAEA" fill-opacity="0.9"/>
</svg>
