<svg width="458" height="100" viewBox="0 0 458 100" fill="none" xmlns="http://www.w3.org/2000/svg">
<path fill-rule="evenodd" clip-rule="evenodd" d="M67.3766 55.9738C70.9385 50.3382 73 43.6598 73 36.5C73 16.3416 56.6584 0 36.5 0C16.3416 0 0 16.3416 0 36.5C0 44.6121 2.64636 52.1061 7.12286 58.1658C17.0621 76.8212 37.9955 100 37.9955 100C37.9955 100 58.0432 74.0351 67.3766 55.9738Z" fill="#F3315C"/>
<path d="M26.2696 36.6735C24.413 36.6735 23.3548 38.7232 24.432 40.2033C28.6204 45.9685 35.5461 49.7273 43.3716 49.7273C51.197 49.7273 58.1164 45.9623 62.3048 40.2033C63.382 38.7232 62.3238 36.6735 60.4672 36.6735H26.2696Z" fill="#B2EAEA"/>
<path d="M37.1431 22.4742C37.1431 25.4974 34.6922 27.9483 31.6689 27.9483H31.4144C28.3912 27.9483 25.9403 25.4974 25.9403 22.4742V22.4742C25.9403 19.4522 28.4495 17 31.5417 17C34.6339 17 37.1431 19.4522 37.1431 22.4742V22.4742Z" fill="#B2EAEA"/>
<path d="M60.8028 22.4742C60.8028 25.4974 58.352 27.9483 55.3287 27.9483H55.0742C52.0509 27.9483 49.6 25.4974 49.6 22.4742V22.4742C49.6 19.4522 52.1093 17 55.2014 17C58.2936 17 60.8028 19.4522 60.8028 22.4742V22.4742Z" fill="#B2EAEA"/>
<path d="M4.99997 40.5C4.99997 39.9477 4.55226 39.5 3.99997 39.5C3.44769 39.5 2.99997 39.9477 2.99997 40.5H4.99997ZM2.99997 40.5C2.99997 43.4537 3.96883 46.7913 5.61182 50.4345C7.25958 54.0882 9.6192 58.1218 12.4758 62.4852C18.1827 71.2023 25.9637 81.3687 34.1936 92.5913L35.8064 91.4086C27.5363 80.1312 19.8172 70.0476 14.1491 61.3897C11.3182 57.0656 9.02161 53.1305 7.435 49.6123C5.84362 46.0836 4.99997 43.0462 4.99997 40.5H2.99997Z" fill="#B2EAEA" fill-opacity="0.9"/>
<path d="M119.28 76.4C117.04 76.4 115.227 75.76 113.84 74.48C112.507 73.1467 111.84 71.3867 111.84 69.2V31.52H100.56C98.2133 31.52 96.4533 31.04 95.28 30.08C94.16 29.0667 93.6 27.5467 93.6 25.52C93.6 23.4933 94.16 22 95.28 21.04C96.4533 20.08 98.2133 19.6 100.56 19.6H138C140.347 19.6 142.08 20.08 143.2 21.04C144.373 22 144.96 23.4933 144.96 25.52C144.96 27.5467 144.373 29.0667 143.2 30.08C142.08 31.04 140.347 31.52 138 31.52H126.72V69.2C126.72 71.3867 126.027 73.1467 124.64 74.48C123.307 75.76 121.52 76.4 119.28 76.4ZM174.704 35.84C176.891 35.84 178.624 36.4267 179.904 37.6C181.184 38.7733 181.824 40.3733 181.824 42.4V70.08C181.824 71.9467 181.158 73.4933 179.824 74.72C178.491 75.8933 176.758 76.48 174.624 76.48C172.704 76.48 171.131 75.9733 169.904 74.96C168.678 73.8933 168.038 72.48 167.984 70.72C166.758 72.64 165.184 74.1067 163.264 75.12C161.398 76.1333 159.238 76.64 156.784 76.64C151.718 76.64 147.958 75.2533 145.504 72.48C143.051 69.6533 141.824 65.3867 141.824 59.68V42.4C141.824 40.3733 142.464 38.7733 143.744 37.6C145.024 36.4267 146.758 35.84 148.944 35.84C151.131 35.84 152.864 36.4267 154.144 37.6C155.424 38.7733 156.064 40.3733 156.064 42.4V60C156.064 63.84 157.718 65.76 161.024 65.76C162.944 65.76 164.518 65.0667 165.744 63.68C166.971 62.2933 167.584 60.48 167.584 58.24V42.4C167.584 40.3733 168.224 38.7733 169.504 37.6C170.784 36.4267 172.518 35.84 174.704 35.84ZM215.073 35.84C216.886 35.68 218.326 36.1067 219.393 37.12C220.46 38.08 220.993 39.52 220.993 41.44C220.993 43.5733 220.486 45.12 219.473 46.08C218.513 47.04 216.753 47.6533 214.193 47.92L211.793 48.16C209.126 48.48 207.206 49.3333 206.033 50.72C204.913 52.0533 204.353 53.8933 204.353 56.24V69.92C204.353 72.1067 203.66 73.76 202.273 74.88C200.94 75.9467 199.26 76.48 197.233 76.48C195.206 76.48 193.5 75.9467 192.113 74.88C190.78 73.76 190.113 72.1067 190.113 69.92V42.24C190.113 40.2133 190.78 38.64 192.113 37.52C193.5 36.4 195.153 35.84 197.073 35.84C199.046 35.84 200.62 36.3733 201.793 37.44C203.02 38.5067 203.633 40 203.633 41.92V43.44C204.486 41.0933 205.873 39.28 207.793 38C209.766 36.72 211.82 36.0267 213.953 35.92L215.073 35.84ZM230.749 76.48C228.722 76.48 227.015 75.9467 225.629 74.88C224.295 73.76 223.629 72.1067 223.629 69.92V42.4C223.629 40.2133 224.295 38.5867 225.629 37.52C227.015 36.4 228.722 35.84 230.749 35.84C232.775 35.84 234.455 36.4 235.789 37.52C237.175 38.5867 237.869 40.2133 237.869 42.4V69.92C237.869 72.1067 237.175 73.76 235.789 74.88C234.455 75.9467 232.775 76.48 230.749 76.48ZM230.749 30.24C228.349 30.24 226.429 29.6267 224.989 28.4C223.602 27.12 222.909 25.44 222.909 23.36C222.909 21.28 223.602 19.6267 224.989 18.4C226.429 17.1733 228.349 16.56 230.749 16.56C233.095 16.56 234.989 17.1733 236.429 18.4C237.869 19.6267 238.589 21.28 238.589 23.36C238.589 25.44 237.869 27.12 236.429 28.4C235.042 29.6267 233.149 30.24 230.749 30.24ZM261.649 76.64C258.075 76.64 255.062 76.3733 252.609 75.84C250.155 75.3067 247.995 74.4533 246.129 73.28C245.382 72.9067 244.795 72.2667 244.369 71.36C243.942 70.4533 243.729 69.44 243.729 68.32C243.729 66.88 244.102 65.7067 244.849 64.8C245.649 63.84 246.635 63.36 247.809 63.36C248.609 63.36 249.355 63.4667 250.049 63.68C250.742 63.84 251.595 64.1333 252.609 64.56C254.315 65.1467 255.809 65.6 257.089 65.92C258.422 66.24 260.102 66.4 262.129 66.4C263.569 66.4 264.689 66.2133 265.489 65.84C266.342 65.4133 266.769 64.8267 266.769 64.08C266.769 63.4933 266.555 63.04 266.129 62.72C265.755 62.4 265.009 62.1067 263.889 61.84C262.769 61.52 260.875 61.0933 258.209 60.56C253.462 59.6533 250.022 58.2933 247.889 56.48C245.809 54.6133 244.769 52 244.769 48.64C244.769 46.1867 245.515 43.9733 247.009 42C248.555 40.0267 250.662 38.48 253.329 37.36C255.995 36.24 258.982 35.68 262.289 35.68C264.689 35.68 267.009 35.9733 269.249 36.56C271.542 37.1467 273.569 37.9733 275.329 39.04C276.982 40 277.809 41.5467 277.809 43.68C277.809 45.1733 277.409 46.4267 276.609 47.44C275.809 48.4533 274.822 48.96 273.649 48.96C272.262 48.96 270.609 48.5067 268.689 47.6C267.409 47.0133 266.262 46.5867 265.249 46.32C264.289 46 263.142 45.84 261.809 45.84C260.475 45.84 259.435 46.0533 258.689 46.48C257.942 46.8533 257.569 47.4133 257.569 48.16C257.569 49.0133 258.075 49.68 259.089 50.16C260.155 50.64 262.235 51.1733 265.329 51.76C270.502 52.6667 274.155 54.0533 276.289 55.92C278.422 57.7333 279.489 60.3733 279.489 63.84C279.489 67.7333 277.862 70.8533 274.609 73.2C271.409 75.4933 267.089 76.64 261.649 76.64ZM308.237 66.32C311.81 66.5333 313.597 68.1333 313.597 71.12C313.597 72.9867 312.877 74.3733 311.437 75.28C309.997 76.1867 307.944 76.56 305.277 76.4L303.037 76.24C298.237 75.8667 294.584 74.4267 292.077 71.92C289.624 69.36 288.397 65.8133 288.397 61.28V47.12H286.077C281.81 47.12 279.677 45.36 279.677 41.84C279.677 38.3733 281.81 36.64 286.077 36.64H288.397V31.44C288.397 29.4133 289.037 27.8133 290.317 26.64C291.597 25.4133 293.33 24.8 295.517 24.8C297.704 24.8 299.437 25.4133 300.717 26.64C301.997 27.8133 302.637 29.4133 302.637 31.44V36.64H307.037C311.304 36.64 313.437 38.3733 313.437 41.84C313.437 45.36 311.304 47.12 307.037 47.12H302.637V62.48C302.637 63.4933 302.93 64.3467 303.517 65.04C304.157 65.7333 304.957 66.1067 305.917 66.16L308.237 66.32ZM335.699 35.68C341.779 35.68 346.259 37.1467 349.139 40.08C352.072 42.96 353.539 47.36 353.539 53.28V70C353.539 72.0267 352.925 73.6267 351.699 74.8C350.525 75.92 348.872 76.48 346.739 76.48C344.872 76.48 343.325 75.9467 342.099 74.88C340.925 73.8133 340.285 72.3733 340.179 70.56C339.432 72.48 338.179 73.9733 336.419 75.04C334.659 76.1067 332.552 76.64 330.099 76.64C327.379 76.64 324.925 76.1067 322.739 75.04C320.552 73.92 318.819 72.4 317.539 70.48C316.312 68.5067 315.699 66.2933 315.699 63.84C315.699 61.0133 316.419 58.7733 317.859 57.12C319.352 55.4133 321.699 54.1867 324.899 53.44C328.099 52.6933 332.419 52.32 337.859 52.32H340.019V51.36C340.019 49.4933 339.592 48.16 338.739 47.36C337.885 46.5067 336.445 46.08 334.419 46.08C332.232 46.08 329.032 46.8267 324.819 48.32C323.592 48.7467 322.552 48.96 321.699 48.96C320.365 48.96 319.299 48.48 318.499 47.52C317.699 46.56 317.299 45.3067 317.299 43.76C317.299 42.5867 317.539 41.6267 318.019 40.88C318.499 40.1333 319.272 39.4667 320.339 38.88C322.205 37.92 324.552 37.1467 327.379 36.56C330.205 35.9733 332.979 35.68 335.699 35.68ZM333.459 67.12C335.379 67.12 336.952 66.4533 338.179 65.12C339.405 63.7333 340.019 61.9733 340.019 59.84V58.88H338.739C335.325 58.88 332.899 59.2 331.459 59.84C330.019 60.4267 329.299 61.44 329.299 62.88C329.299 64.1067 329.672 65.12 330.419 65.92C331.219 66.72 332.232 67.12 333.459 67.12ZM387.599 35.68C390.959 35.68 393.946 36.56 396.559 38.32C399.226 40.0267 401.279 42.4533 402.719 45.6C404.213 48.7467 404.959 52.3467 404.959 56.4C404.959 60.4533 404.213 64.0267 402.719 67.12C401.279 70.16 399.253 72.5067 396.639 74.16C394.026 75.8133 391.013 76.64 387.599 76.64C385.093 76.64 382.773 76.1333 380.639 75.12C378.559 74.1067 376.933 72.7467 375.759 71.04V84.64C375.759 86.5067 375.119 88 373.839 89.12C372.559 90.24 370.879 90.8 368.799 90.8C366.613 90.8 364.853 90.1867 363.519 88.96C362.186 87.7867 361.519 86.2667 361.519 84.4V42.4C361.519 40.4267 362.133 38.8533 363.359 37.68C364.639 36.4533 366.346 35.84 368.479 35.84C370.506 35.84 372.133 36.3733 373.359 37.44C374.639 38.5067 375.359 39.92 375.519 41.68C376.639 39.8133 378.266 38.3467 380.399 37.28C382.586 36.2133 384.986 35.68 387.599 35.68ZM383.279 66C385.733 66 387.599 65.1733 388.879 63.52C390.213 61.8667 390.879 59.4933 390.879 56.4C390.879 53.1467 390.213 50.6667 388.879 48.96C387.546 47.2 385.653 46.32 383.199 46.32C380.746 46.32 378.853 47.1733 377.519 48.88C376.186 50.5867 375.519 53.04 375.519 56.24C375.519 59.3867 376.186 61.8133 377.519 63.52C378.853 65.1733 380.773 66 383.279 66ZM437.599 35.68C440.959 35.68 443.946 36.56 446.559 38.32C449.226 40.0267 451.279 42.4533 452.719 45.6C454.213 48.7467 454.959 52.3467 454.959 56.4C454.959 60.4533 454.213 64.0267 452.719 67.12C451.279 70.16 449.253 72.5067 446.639 74.16C444.026 75.8133 441.013 76.64 437.599 76.64C435.093 76.64 432.773 76.1333 430.639 75.12C428.559 74.1067 426.933 72.7467 425.759 71.04V84.64C425.759 86.5067 425.119 88 423.839 89.12C422.559 90.24 420.879 90.8 418.799 90.8C416.613 90.8 414.853 90.1867 413.519 88.96C412.186 87.7867 411.519 86.2667 411.519 84.4V42.4C411.519 40.4267 412.133 38.8533 413.359 37.68C414.639 36.4533 416.346 35.84 418.479 35.84C420.506 35.84 422.133 36.3733 423.359 37.44C424.639 38.5067 425.359 39.92 425.519 41.68C426.639 39.8133 428.266 38.3467 430.399 37.28C432.586 36.2133 434.986 35.68 437.599 35.68ZM433.279 66C435.733 66 437.599 65.1733 438.879 63.52C440.213 61.8667 440.879 59.4933 440.879 56.4C440.879 53.1467 440.213 50.6667 438.879 48.96C437.546 47.2 435.653 46.32 433.199 46.32C430.746 46.32 428.853 47.1733 427.519 48.88C426.186 50.5867 425.519 53.04 425.519 56.24C425.519 59.3867 426.186 61.8133 427.519 63.52C428.853 65.1733 430.773 66 433.279 66Z" fill="#1B1E1F"/>
</svg>
